<svg width="165" height="165" viewBox="0 0 165 165" fill="none" xmlns="http://www.w3.org/2000/svg">
    <g filter="url(#filter0_d)">
        <circle cx="82.5" cy="82.5" r="62.5" fill="white"/>
    </g>
    <path d="M113.67 67.4173V67.3137V56.0561C113.67 54.1588 112.132 52.621 110.232 52.621C108.336 52.621 106.798 54.1586 106.798 56.0561V59.9425V60.5461L106.372 60.1193L99.1154 52.8628C99.1154 52.8628 99.1153 52.8628 99.1153 52.8628C95.6255 49.3749 89.5464 49.3811 86.0646 52.8691L86.0644 52.8693L61.6974 77.2357C60.3563 78.5795 60.3565 80.7535 61.6973 82.0949L61.6974 82.095C63.0388 83.4381 65.217 83.4381 66.5579 82.095L66.558 82.0949L90.9228 57.7276L90.9233 57.7271C91.8143 56.8408 93.371 56.8402 94.2584 57.725L94.2587 57.7253L118.627 82.0946C119.301 82.7666 120.179 83.1005 121.057 83.1005C121.938 83.1005 122.817 82.7661 123.488 82.0949L113.67 67.4173ZM113.67 67.4173L113.743 67.4905M113.67 67.4173L113.743 67.4905M113.743 67.4905L123.488 77.2358M113.743 67.4905L123.488 77.2358M123.488 77.2358C124.83 78.5797 124.83 80.7536 123.488 82.0948L123.488 77.2358Z" fill="#575757" stroke="white" stroke-width="0.5"/>
    <path fill-rule="evenodd" clip-rule="evenodd" d="M69.8796 86.3269C69.5412 86.6652 69.3494 87.127 69.3494 87.6089V103.237C69.3494 106.904 72.3228 109.878 75.9899 109.878H86.6016V93.4436H98.5821V109.878H109.194C112.861 109.878 115.834 106.904 115.834 103.237V87.6089C115.834 87.127 115.644 86.6652 115.304 86.3269L93.873 64.8999C93.1651 64.1923 92.0188 64.1923 91.313 64.8999L69.8796 86.3269ZM92.5929 71.8862L75.1951 89.2789V103.237C75.1951 103.676 75.5512 104.032 75.9899 104.032H80.7559V87.5979H104.428V104.032H109.194C109.632 104.032 109.989 103.676 109.989 103.237V89.2787L92.5929 71.8862Z" fill="#575757"/>
    <path d="M32.5 95.9976C32.5 94.3834 33.8086 93.0748 35.4229 93.0748H58.8057C60.4199 93.0748 61.7285 94.3834 61.7285 95.9976C61.7285 97.6119 60.4199 98.9205 58.8057 98.9205H35.4229C33.8086 98.9205 32.5 97.6119 32.5 95.9976Z" fill="#575757"/>
    <path d="M47.1142 110.612C45.5 110.612 44.1913 109.303 44.1913 107.689L44.1913 84.3062C44.1913 82.6919 45.4999 81.3833 47.1142 81.3833C48.7284 81.3833 50.037 82.6919 50.0371 84.3062L50.0371 107.689C50.0371 109.303 48.7284 110.612 47.1142 110.612Z" fill="#575757"/>
    <defs>
        <filter id="filter0_d" x="0" y="0" width="165" height="165" filterUnits="userSpaceOnUse" color-interpolation-filters="sRGB">
            <feFlood flood-opacity="0" result="BackgroundImageFix"/>
            <feColorMatrix in="SourceAlpha" type="matrix" values="0 0 0 0 0 0 0 0 0 0 0 0 0 0 0 0 0 0 127 0"/>
            <feOffset/>
            <feGaussianBlur stdDeviation="10"/>
            <feColorMatrix type="matrix" values="0 0 0 0 0 0 0 0 0 0 0 0 0 0 0 0 0 0 0.2 0"/>
            <feBlend mode="normal" in2="BackgroundImageFix" result="effect1_dropShadow"/>
            <feBlend mode="normal" in="SourceGraphic" in2="effect1_dropShadow" result="shape"/>
        </filter>
    </defs>
</svg>
