<svg width="15" height="20" viewBox="0 0 15 20" fill="none" xmlns="http://www.w3.org/2000/svg">
    <path d="M12.8154 9.62889L11.1483 7.96178V6.036C11.1483 5.68779 10.8661 5.40559 10.5174 5.40559C10.1694 5.40559 9.88727 5.68779 9.88727 6.036V6.70082L8.64598 5.45948C8.03227 4.84611 6.96524 4.8472 6.35293 5.46059L2.18455 9.62889C1.93848 9.87544 1.93848 10.2744 2.18455 10.5206C2.43073 10.7671 2.83045 10.7671 3.07655 10.5206L7.24453 6.35217C7.38031 6.2171 7.61963 6.2171 7.7547 6.35177L11.9234 10.5206C12.047 10.6438 12.2082 10.7051 12.3693 10.7051C12.5307 10.7051 12.6922 10.6438 12.8154 10.5206C13.0615 10.2744 13.0615 9.87547 12.8154 9.62889Z" fill="#0C3117"/>
    <path d="M7.71896 7.54883C7.59786 7.42779 7.40177 7.42779 7.28103 7.54883L3.61451 11.2143C3.55662 11.2721 3.5238 11.3511 3.5238 11.4336V14.107C3.5238 14.7343 4.03246 15.243 4.65978 15.243H6.47508V12.4317H8.52452V15.243H10.3398C10.9671 15.243 11.4758 14.7343 11.4758 14.107V11.4336C11.4758 11.3511 11.4433 11.2721 11.3851 11.2143L7.71896 7.54883Z" fill="#0C3117"/>
</svg>
