<svg width="165" height="165" viewBox="0 0 165 165" fill="none" xmlns="http://www.w3.org/2000/svg">
    <g filter="url(#filter0_d)">
        <circle cx="82.5" cy="82.5" r="62.5" fill="white"/>
    </g>
    <path d="M110.579 66.1935V66.09V54.8153C110.579 52.9149 109.039 51.3746 107.135 51.3746C105.236 51.3746 103.696 52.9147 103.696 54.8153V58.7076V59.3111L103.269 58.8844L96.002 51.6169C96.002 51.6169 96.002 51.6169 96.002 51.6169C92.5067 48.1235 86.4181 48.1298 82.9309 51.6232L82.9307 51.6234L58.5268 76.0268C58.5267 76.0268 58.5267 76.0269 58.5266 76.027C57.1835 77.3729 57.1837 79.5504 58.5266 80.8939L58.5267 80.8939C59.8703 82.2393 62.0521 82.2392 63.3951 80.894L63.3953 80.8938L87.7971 56.4896L87.7975 56.4891C88.6897 55.6016 90.2486 55.601 91.1372 56.487L91.1375 56.4872L115.543 80.8936C116.218 81.5667 117.097 81.9011 117.977 81.9011C118.859 81.9011 119.739 81.5662 120.412 80.8938L110.579 66.1935ZM110.579 66.1935L110.652 66.2668M110.579 66.1935L110.652 66.2668M110.652 66.2668L120.412 76.0268M110.652 66.2668L120.412 76.0268M120.412 76.0268C121.756 77.3729 121.756 79.5504 120.412 80.8938L120.412 76.0268Z" fill="#575757" stroke="white" stroke-width="0.5"/>
    <path fill-rule="evenodd" clip-rule="evenodd" d="M66.7217 85.132C66.3828 85.4708 66.1907 85.9333 66.1907 86.416V102.068C66.1907 105.741 69.1687 108.718 72.8413 108.718H83.4691V92.2595H95.4677V108.718H106.096C109.768 108.718 112.746 105.741 112.746 102.068V86.416C112.746 85.9333 112.556 85.4708 112.215 85.132L90.7516 63.6725C90.0426 62.9639 88.8946 62.9639 88.1876 63.6725L66.7217 85.132ZM89.4694 70.6694L72.0453 88.0885V102.068C72.0453 102.507 72.402 102.864 72.8413 102.864H77.6145V86.4049H101.322V102.864H106.096C106.535 102.864 106.892 102.507 106.892 102.068V88.0883L89.4694 70.6694Z" fill="#575757"/>
    <path d="M35 94.5377C35 92.921 36.0874 91.6104 37.4288 91.6104H56.8588C58.2002 91.6104 59.2875 92.921 59.2875 94.5377C59.2875 96.1544 58.2002 97.465 56.8588 97.465H37.4288C36.0874 97.465 35 96.1544 35 94.5377Z" fill="#575757"/>
    <defs>
        <filter id="filter0_d" x="0" y="0" width="165" height="165" filterUnits="userSpaceOnUse" color-interpolation-filters="sRGB">
            <feFlood flood-opacity="0" result="BackgroundImageFix"/>
            <feColorMatrix in="SourceAlpha" type="matrix" values="0 0 0 0 0 0 0 0 0 0 0 0 0 0 0 0 0 0 127 0"/>
            <feOffset/>
            <feGaussianBlur stdDeviation="10"/>
            <feColorMatrix type="matrix" values="0 0 0 0 0 0 0 0 0 0 0 0 0 0 0 0 0 0 0.2 0"/>
            <feBlend mode="normal" in2="BackgroundImageFix" result="effect1_dropShadow"/>
            <feBlend mode="normal" in="SourceGraphic" in2="effect1_dropShadow" result="shape"/>
        </filter>
    </defs>
</svg>
