<svg width="165" height="164" viewBox="0 0 165 164" fill="none" xmlns="http://www.w3.org/2000/svg">
<g filter="url(#filter0_d)">
<ellipse cx="82.5" cy="82" rx="62.5" ry="62" fill="white"/>
</g>
<path d="M93.2578 45.5495L47.8359 71.5641L40.9682 59.764C40.6904 59.2867 40.8537 58.6772 41.3329 58.4027L85.0193 33.3822C85.4986 33.1077 86.1123 33.2721 86.3901 33.7495L93.2578 45.5495ZM95.2698 49.0066L125.353 100.695C125.63 101.172 125.467 101.781 124.988 102.056L81.3015 127.076C80.8222 127.351 80.2085 127.187 79.9307 126.709L49.848 75.0212L95.2698 49.0066Z" stroke="#575757" stroke-width="4"/>
<rect x="56.25" y="88.2" width="53.75" height="31" fill="white"/>
<path d="M96.6925 102.4H94.3592V98H92.0259V102.6C92.0259 103.705 92.9213 104.6 94.0259 104.6H96.6925V106.8H92.0259V109H97.8592C98.5035 109 99.0259 108.507 99.0259 107.9V98H96.6925V102.4Z" fill="#575757"/>
<path fill-rule="evenodd" clip-rule="evenodd" d="M74.7694 109.192H77.0259V106.954C77.0237 105.825 76.588 104.738 75.8073 103.916C76.9025 103.015 77.3091 101.529 76.8232 100.202C76.3379 98.875 75.0642 97.994 73.6412 98H69.1282C68.5052 98 68 98.5012 68 99.1192V109.192H70.2565H74.7694ZM69.4293 102.248V99.8414H73.9422C74.773 99.8414 75.4465 100.38 75.4465 101.045C75.4465 101.709 74.773 102.248 73.9422 102.248H69.4293ZM72.4379 104.655H69.4293V107.062H75.4466C75.4466 105.733 74.0995 104.655 72.4379 104.655Z" fill="#575757"/>
<path d="M89.0259 104.6C89.0259 107.03 87.011 109 84.5259 109C82.0408 109 80.0259 107.03 80.0259 104.6L80.0259 98L82.2759 98L82.2759 101.3L82.2759 104.6C82.2759 105.815 83.2833 106.8 84.5259 106.8C85.7684 106.8 86.7759 105.815 86.7759 104.6L86.7759 101.3L86.7759 98L89.0259 98L89.0259 104.6Z" fill="#575757"/>
<path d="M108.438 86.96H103.616C103.927 85.8466 103.691 84.6527 102.98 83.7382C102.269 82.8231 101.165 82.2941 100 82.31C99.4012 82.3141 98.8126 82.4621 98.2843 82.7414L85.5859 68.7533C85.813 68.3487 85.9343 67.8932 85.9375 67.43C85.9375 65.8892 84.6782 64.64 83.125 64.64C81.5718 64.64 80.3125 65.8892 80.3125 67.43C80.3157 67.8932 80.437 68.3487 80.6641 68.7533L67.9657 82.7414C67.4374 82.4621 66.8488 82.3141 66.25 82.31C65.0854 82.2941 63.9813 82.8231 63.27 83.7382C62.5586 84.6527 62.3228 85.8466 62.6341 86.96H57.8125C56.2593 86.96 55 88.2092 55 89.75V117.65C55 119.191 56.2593 120.44 57.8125 120.44H108.438C109.991 120.44 111.25 119.191 111.25 117.65V89.75C111.25 88.2092 109.991 86.96 108.438 86.96ZM101.875 86.03C101.874 86.357 101.786 86.678 101.618 86.96H98.3818C98.2143 86.678 98.1259 86.357 98.125 86.03C98.125 85.0028 98.9645 84.17 100 84.17C101.035 84.17 101.875 85.0028 101.875 86.03ZM69.371 83.9738L82.0506 70.0061C82.7382 70.2913 83.5118 70.2913 84.1994 70.0061L96.879 83.9738C96.277 84.8475 96.0957 85.941 96.3841 86.96H69.8659C70.1543 85.941 69.973 84.8475 69.371 83.9738ZM83.125 66.5C83.6427 66.5 84.0625 66.9164 84.0625 67.43C84.0625 67.9436 83.6427 68.36 83.125 68.36C82.6073 68.36 82.1875 67.9436 82.1875 67.43C82.1875 66.9164 82.6073 66.5 83.125 66.5ZM64.375 86.03C64.375 85.0028 65.2145 84.17 66.25 84.17C67.2855 84.17 68.125 85.0028 68.125 86.03C68.1241 86.357 68.0357 86.678 67.8682 86.96H64.6318C64.4643 86.678 64.3759 86.357 64.375 86.03ZM109.375 117.65C109.375 118.164 108.955 118.58 108.438 118.58H57.8125C57.2948 118.58 56.875 118.164 56.875 117.65V89.75C56.875 89.2364 57.2948 88.82 57.8125 88.82H108.438C108.955 88.82 109.375 89.2364 109.375 89.75V117.65Z" fill="#575757"/>
<path d="M58.75 93.47V97.19H60.625V93.47C60.625 92.9564 61.0448 92.54 61.5625 92.54H65.3125V90.68H61.5625C60.0093 90.68 58.75 91.9292 58.75 93.47Z" fill="#575757"/>
<path d="M105.625 113.93C105.625 114.444 105.205 114.86 104.687 114.86H100.938V116.72H104.687C106.241 116.72 107.5 115.471 107.5 113.93V110.21H105.625V113.93Z" fill="#575757"/>
<defs>
<filter id="filter0_d" x="0" y="0" width="165" height="164" filterUnits="userSpaceOnUse" color-interpolation-filters="sRGB">
<feFlood flood-opacity="0" result="BackgroundImageFix"/>
<feColorMatrix in="SourceAlpha" type="matrix" values="0 0 0 0 0 0 0 0 0 0 0 0 0 0 0 0 0 0 127 0"/>
<feOffset/>
<feGaussianBlur stdDeviation="10"/>
<feColorMatrix type="matrix" values="0 0 0 0 0 0 0 0 0 0 0 0 0 0 0 0 0 0 0.2 0"/>
<feBlend mode="normal" in2="BackgroundImageFix" result="effect1_dropShadow"/>
<feBlend mode="normal" in="SourceGraphic" in2="effect1_dropShadow" result="shape"/>
</filter>
</defs>
</svg>
