<svg width="165" height="164" viewBox="0 0 165 164" fill="none" xmlns="http://www.w3.org/2000/svg">
    <g filter="url(#filter0_d)">
        <ellipse cx="82.5" cy="82" rx="62.5" ry="62" fill="white"/>
    </g>
    <path d="M40.9682 59.764C40.6904 59.2867 40.8537 58.6772 41.3329 58.4027L85.0193 33.3822C85.4986 33.1077 86.1123 33.2721 86.3901 33.7495L94.2638 47.2781L125.353 100.695C125.63 101.172 125.467 101.781 124.988 102.056L81.3015 127.076C80.8222 127.351 80.2085 127.187 79.9307 126.709L48.8419 73.2926L40.9682 59.764Z" stroke="#575757" stroke-width="4"/>
    <rect x="56.25" y="88.2" width="53.75" height="31" fill="white"/>
    <path d="M72.8125 99.0499H75.625V97.1899H72.8125V95.3299H76.5625V93.4699H71.875C71.3573 93.4699 70.9375 93.8863 70.9375 94.3999V102.77H72.8125V99.0499Z" fill="#575757"/>
    <path d="M85.9376 99.9799V96.2599C85.9376 94.7191 84.6783 93.4699 83.1251 93.4699H81.2501C79.6969 93.4699 78.4376 94.7191 78.4376 96.2599V99.9799C78.4376 101.521 79.6969 102.77 81.2501 102.77H83.1251C84.6783 102.77 85.9376 101.521 85.9376 99.9799ZM84.0626 99.9799C84.0626 100.493 83.6429 100.91 83.1251 100.91H81.2501C80.7324 100.91 80.3126 100.493 80.3126 99.9799V96.2599C80.3126 95.7463 80.7324 95.3299 81.2501 95.3299H83.1251C83.6429 95.3299 84.0626 95.7463 84.0626 96.2599V99.9799Z" fill="#575757"/>
    <path d="M93.4374 100.91V102.77H95.3124V100.91C95.3106 99.9717 94.9485 99.069 94.2998 98.386C95.2098 97.6372 95.5477 96.4021 95.1439 95.2995C94.7406 94.1969 93.6823 93.4649 92.4999 93.4699H88.7499C88.2321 93.4699 87.8124 93.8863 87.8124 94.3999V102.77H89.6874V99.0499H91.5624C92.5978 99.0499 93.4374 99.8827 93.4374 100.91ZM89.6874 97.1899V95.3299H92.4999C93.0176 95.3299 93.4374 95.7463 93.4374 96.2599C93.4374 96.7735 93.0176 97.1899 92.4999 97.1899H89.6874Z" fill="#575757"/>
    <path d="M67.1875 107.42C67.1875 108.961 68.4468 110.21 70 110.21H70.9375C71.4552 110.21 71.875 110.626 71.875 111.14C71.875 111.654 71.4552 112.07 70.9375 112.07H67.1875V113.93H70.9375C72.4907 113.93 73.75 112.681 73.75 111.14C73.75 109.599 72.4907 108.35 70.9375 108.35H70C69.4823 108.35 69.0625 107.934 69.0625 107.42C69.0625 106.906 69.4823 106.49 70 106.49H73.75V104.63H70C68.4468 104.63 67.1875 105.879 67.1875 107.42Z" fill="#575757"/>
    <path d="M79.3749 104.63C77.304 104.63 75.6249 106.296 75.6249 108.35V113.93H77.4999V111.14H81.2499V113.93H83.1249V108.35C83.1249 106.296 81.4459 104.63 79.3749 104.63ZM77.4999 109.28V108.35C77.4999 107.323 78.3395 106.49 79.3749 106.49C80.4104 106.49 81.2499 107.323 81.2499 108.35V109.28H77.4999Z" fill="#575757"/>
    <path d="M86.875 104.63H85V113C85 113.514 85.4198 113.93 85.9375 113.93H90.625V112.07H86.875V104.63Z" fill="#575757"/>
    <path d="M92.5001 105.56V113C92.5001 113.514 92.9198 113.93 93.4376 113.93H99.0626V112.07H94.3751V110.21H97.1876V108.35H94.3751V106.49H99.0626V104.63H93.4376C92.9198 104.63 92.5001 105.046 92.5001 105.56Z" fill="#575757"/>
    <path d="M108.438 86.96H103.616C103.927 85.8465 103.691 84.6527 102.98 83.7381C102.269 82.8231 101.165 82.2941 100 82.31C99.4012 82.3141 98.8126 82.4621 98.2843 82.7414L85.5859 68.7533C85.813 68.3486 85.9343 67.8932 85.9375 67.43C85.9375 65.8892 84.6782 64.64 83.125 64.64C81.5718 64.64 80.3125 65.8892 80.3125 67.43C80.3157 67.8932 80.437 68.3486 80.6641 68.7533L67.9657 82.7414C67.4374 82.4621 66.8488 82.3141 66.25 82.31C65.0854 82.2941 63.9813 82.8231 63.27 83.7381C62.5586 84.6527 62.3228 85.8465 62.6341 86.96H57.8125C56.2593 86.96 55 88.2092 55 89.75V117.65C55 119.191 56.2593 120.44 57.8125 120.44H108.438C109.991 120.44 111.25 119.191 111.25 117.65V89.75C111.25 88.2092 109.991 86.96 108.438 86.96ZM101.875 86.03C101.874 86.357 101.786 86.678 101.618 86.96H98.3818C98.2143 86.678 98.1259 86.357 98.125 86.03C98.125 85.0028 98.9645 84.17 100 84.17C101.035 84.17 101.875 85.0028 101.875 86.03ZM69.371 83.9738L82.0506 70.0061C82.7382 70.2913 83.5118 70.2913 84.1994 70.0061L96.879 83.9738C96.277 84.8475 96.0957 85.941 96.3841 86.96H69.8659C70.1543 85.941 69.973 84.8475 69.371 83.9738ZM83.125 66.5C83.6427 66.5 84.0625 66.9164 84.0625 67.43C84.0625 67.9436 83.6427 68.36 83.125 68.36C82.6073 68.36 82.1875 67.9436 82.1875 67.43C82.1875 66.9164 82.6073 66.5 83.125 66.5ZM64.375 86.03C64.375 85.0028 65.2145 84.17 66.25 84.17C67.2855 84.17 68.125 85.0028 68.125 86.03C68.1241 86.357 68.0357 86.678 67.8682 86.96H64.6318C64.4643 86.678 64.3759 86.357 64.375 86.03ZM109.375 117.65C109.375 118.164 108.955 118.58 108.438 118.58H57.8125C57.2948 118.58 56.875 118.164 56.875 117.65V89.75C56.875 89.2364 57.2948 88.82 57.8125 88.82H108.438C108.955 88.82 109.375 89.2364 109.375 89.75V117.65Z" fill="#575757"/>
    <path d="M58.75 93.47V97.19H60.625V93.47C60.625 92.9564 61.0448 92.54 61.5625 92.54H65.3125V90.68H61.5625C60.0093 90.68 58.75 91.9292 58.75 93.47Z" fill="#575757"/>
    <path d="M105.625 113.93C105.625 114.444 105.205 114.86 104.687 114.86H100.938V116.72H104.687C106.241 116.72 107.5 115.471 107.5 113.93V110.21H105.625V113.93Z" fill="#575757"/>
    <defs>
        <filter id="filter0_d" x="0" y="0" width="165" height="164" filterUnits="userSpaceOnUse" color-interpolation-filters="sRGB">
            <feFlood flood-opacity="0" result="BackgroundImageFix"/>
            <feColorMatrix in="SourceAlpha" type="matrix" values="0 0 0 0 0 0 0 0 0 0 0 0 0 0 0 0 0 0 127 0"/>
            <feOffset/>
            <feGaussianBlur stdDeviation="10"/>
            <feColorMatrix type="matrix" values="0 0 0 0 0 0 0 0 0 0 0 0 0 0 0 0 0 0 0.2 0"/>
            <feBlend mode="normal" in2="BackgroundImageFix" result="effect1_dropShadow"/>
            <feBlend mode="normal" in="SourceGraphic" in2="effect1_dropShadow" result="shape"/>
        </filter>
    </defs>
</svg>
